<?xml version="1.0" standalone="no"?>
<svg xmlns:xlink="http://www.w3.org/1999/xlink" id="wave" style="transform:rotate(180deg); transition: 0.3s" viewBox="0 0 1440 100" version="1.1" xmlns="http://www.w3.org/2000/svg"><defs><linearGradient id="sw-gradient-0" x1="0" x2="0" y1="1" y2="0"><stop stop-color="rgba(221, 221, 221, 1)" offset="0%"/><stop stop-color="rgba(221, 221, 221, 1)" offset="100%"/></linearGradient></defs><path style="transform:translate(0, 0px); opacity:1" fill="url(#sw-gradient-0)" d="M0,40L10.9,36.7C21.8,33,44,27,65,31.7C87.3,37,109,53,131,50C152.7,47,175,23,196,18.3C218.2,13,240,27,262,36.7C283.6,47,305,53,327,61.7C349.1,70,371,80,393,70C414.5,60,436,30,458,23.3C480,17,502,33,524,33.3C545.5,33,567,17,589,18.3C610.9,20,633,40,655,55C676.4,70,698,80,720,70C741.8,60,764,30,785,15C807.3,0,829,0,851,3.3C872.7,7,895,13,916,28.3C938.2,43,960,67,982,63.3C1003.6,60,1025,30,1047,20C1069.1,10,1091,20,1113,26.7C1134.5,33,1156,37,1178,36.7C1200,37,1222,33,1244,33.3C1265.5,33,1287,37,1309,40C1330.9,43,1353,47,1375,41.7C1396.4,37,1418,23,1440,15C1461.8,7,1484,3,1505,6.7C1527.3,10,1549,20,1560,25L1570.9,30L1570.9,100L1560,100C1549.1,100,1527,100,1505,100C1483.6,100,1462,100,1440,100C1418.2,100,1396,100,1375,100C1352.7,100,1331,100,1309,100C1287.3,100,1265,100,1244,100C1221.8,100,1200,100,1178,100C1156.4,100,1135,100,1113,100C1090.9,100,1069,100,1047,100C1025.5,100,1004,100,982,100C960,100,938,100,916,100C894.5,100,873,100,851,100C829.1,100,807,100,785,100C763.6,100,742,100,720,100C698.2,100,676,100,655,100C632.7,100,611,100,589,100C567.3,100,545,100,524,100C501.8,100,480,100,458,100C436.4,100,415,100,393,100C370.9,100,349,100,327,100C305.5,100,284,100,262,100C240,100,218,100,196,100C174.5,100,153,100,131,100C109.1,100,87,100,65,100C43.6,100,22,100,11,100L0,100Z"/></svg>